<?xml version="1.0" encoding="UTF-8"?><svg id="Layer_1" xmlns="http://www.w3.org/2000/svg" viewBox="0 0 289.2 294.5"><defs><style>.cls-1{fill:#fefefe;}.cls-2{fill:#fdfdfc;}.cls-3{fill:#99542d;}</style></defs><path class="cls-1" d="M83.6,64.2c-23.2-3.8-42,5.2-53.6,26.7-10.1,18.7-13.8,37.8-2.5,55.9,5.9,9.4,14.5,15.2,24.3,19.1,4.1,1.7,4.7,3.8,3.3,8.3-3.2,10.3-7.7,19.8-14.6,28-3.4,4.1-3.5,7.5-.7,11.4,5.1,7.1,10.8,13.6,17.6,18.9,24.5,19,53.2,25.2,83.8,25.5,4.6,.1,6.7-2.5,7.1-7.3,.8-9.2,2.8-18.2,5.7-27q2.9-8.6,10.6-5.9c30.2,10.7,54.8-1.8,67.1-34,8.1-21.2,2.8-40.5-14.3-51.7-3.6-2.3-7.3-4.5-11.3-5.8-4.4-1.5-5-3.4-3.3-8.3,5.7-16.7,5.9-32.7-4.3-46.3-21.1-28.2-62-27.5-86.4,1.5-3.4,4-5.4,3.9-8,.4,1.1-2.2,1.8-4.1-1-5.3-4.9-2-9.6-4.2-14.4-6.4-2.5-1.2-4.1-.3-5.1,2.3Zm173.7,91.5c.8-2.3,.1-4.6-.4-6.8-3.6-15.2-12.1-26.4-24.5-34-3.1-1.9-3.9-3.8-3.3-7.7,2.8-18.8-1.8-35.6-9.7-51.2-1.9-3.8-5.5-4.1-7.4-1.1-1.7,2.6-.3,4.6,.7,6.7,7.8,15.9,11.9,32.7,7.2,51.6-1,4,.6,5.6,3.7,7,12.4,5.9,21,15.6,25,29.8,.6,2.1,1,4.3,1.6,6.3,.6,1.8,1.9,2.4,3.7,2.2,1.4-.2,2.5-1.2,3.4-2.8Zm0,19.6c2-4.7,1.2-10.1-1.3-10.9-2.2-.7-4,.2-5.2,2.6-1.7,3.6-1,9.4,1.3,10.4,2.4,1,4.3,0,5.2-2.1Z"/><path class="cls-3" d="M104,73.5c2.6,3.5,4.6,3.6,8-.4,24.4-29,65.3-29.7,86.4-1.5,10.2,13.6,10,29.6,4.3,46.3-1.7,5-1.1,6.9,3.3,8.3,4,1.3,7.8,3.5,11.3,5.8,17.2,11.2,22.4,30.5,14.3,51.7-12.3,32.3-36.9,44.7-67.1,34q-7.7-2.7-10.6,5.9c-3,8.8-5,17.8-5.7,27-.4,4.7-2.4,7.3-7.1,7.3-30.6-.4-59.3-6.6-83.8-25.5-6.8-5.3-12.5-11.8-17.6-18.9-2.8-3.9-2.7-7.3,.7-11.4,6.9-8.2,11.4-17.7,14.6-28,1.4-4.5,.8-6.6-3.3-8.3-9.7-3.9-18.4-9.8-24.3-19.1-11.3-18.1-7.6-37.2,2.5-55.9,11.5-21.5,30.3-30.5,53.6-26.7,7.4,2,14.2,5.3,20.5,9.4Zm35.1,165.2c2.3-10.8,5.6-20.7,9.9-30.3,2.8-6.4,5.1-7.6,10.9-5.2,6.3,2.5,12.2,6,19.5,6.5,20.9,1.4,34.6-7.6,42.5-29.2,6.2-16.9,2.2-31-11.5-39.2-5.3-3.2-10.9-5.6-16.9-7.2-6.4-1.7-7.3-4-4.2-10.7,1-2.2,2.2-4.5,3-6.8,4.8-14,5.8-27.3-3.4-38.7-19.4-23.9-56.1-19.6-73.9,8.6-4.9,7.8-6.7,7.9-12.6,1.7-11.3-11.6-24.8-16.6-41-11.7-15.3,4.6-26.9,21.2-29.5,40.4-1.7,12.2,1.8,21.8,10,29.3,5.7,5.1,12.1,8.8,19.4,11,6.5,2,7.2,3.3,5.9,10.7-1.6,9.4-4.8,18.3-9.3,26.7-2.1,3.9-1.9,5.2,2.4,5.8,14.2,1.9,27.7,5.9,40.7,11.7,14.1,6.3,26.5,15.1,38.1,26.6Zm-10.6,6.7c-20.8-20.9-46.5-30.6-75.2-33.8,19.5,23.7,46.2,31.3,75.2,33.8Z"/><path class="cls-3" d="M257.3,155.7c-.9,1.7-2,2.6-3.5,2.8-1.7,.2-3.1-.4-3.7-2.2-.6-2.1-1-4.2-1.6-6.3-4-14.2-12.6-23.9-25-29.8-3-1.4-4.6-3.1-3.7-7,4.7-18.9,.5-35.7-7.2-51.6-1-2.1-2.3-4.1-.7-6.7,1.9-3,5.5-2.7,7.4,1.1,7.9,15.7,12.5,32.4,9.7,51.2-.6,4,.2,5.8,3.3,7.7,12.4,7.6,20.8,18.7,24.5,34,.6,2.2,1.2,4.5,.5,6.8Z"/><path class="cls-3" d="M257.3,175.3c-.9,2.1-2.8,3.1-5.2,2.1-2.3-1-3-6.8-1.3-10.4,1.1-2.4,3-3.3,5.2-2.6,2.5,.8,3.3,6.2,1.3,10.9Z"/><path class="cls-2" d="M104,73.5c-6.4-4.1-13.1-7.5-20.5-9.3,1.1-2.6,2.7-3.4,5-2.4,4.8,2.2,9.6,4.4,14.4,6.4,3,1.2,2.2,3.1,1.1,5.3Z"/><path class="cls-2" d="M128.5,245.4c-29-2.5-55.7-10.1-75.2-33.8,28.7,3.2,54.5,13,75.2,33.8Z"/><path class="cls-3" d="M146.7,183c-6.1,9.4-12.2,18.9-18.5,28.3-1.9,2.8-4.8,3.7-7.4,1.6-2.4-2-2.8-5-.9-7.9,5.9-9.2,12-18.3,18-27.4,2-3,4.6-3.8,7.3-2,2.5,1.6,2.7,4.3,1.5,7.4Z"/><path class="cls-3" d="M86.3,191.4c-1.2,3.7-3.4,6.1-7.1,5.1-3.7-1.1-4.1-4.1-2.9-7.9,3.1-9.7,6-19.5,9.1-29.2,1.2-3.7,3.3-6.1,7.1-5.1,3.7,1.1,4.2,4.3,3.1,8-3.2,9.6-6.3,19.3-9.3,29.1Z"/></svg>