<?xml version="1.0" encoding="utf-8"?>
<!-- Generator: Adobe Illustrator 26.5.0, SVG Export Plug-In . SVG Version: 6.00 Build 0)  -->
<svg version="1.1" id="Layer_1" xmlns="http://www.w3.org/2000/svg" xmlns:xlink="http://www.w3.org/1999/xlink" x="0px" y="0px"
	 viewBox="0 0 1152 864" style="enable-background:new 0 0 1152 864;" xml:space="preserve">
<style type="text/css">
	.st0{fill:#FEFEFE;}
	.st1{fill:#99542D;}
	.st2{fill:#FDFDFC;}
</style>
<path class="st0" d="M488.6,374.7c-24.3,6-38.9,22.7-41.2,48.5c-2,22.5,2.3,42.7,21,55.7c9.7,6.7,20.6,8.8,31.7,8.5
	c4.7-0.1,6.2,1.7,6.7,6.7c1.2,11.4,0.8,22.6-2.5,33.5c-1.6,5.5-0.2,8.8,4.1,11.4c8,4.8,16.2,8.8,25.1,11.1
	c31.9,8.3,62.5,2.3,92.6-10.2c4.6-1.9,5.4-5.3,3.8-10.1c-3.1-9.3-4.9-18.9-5.7-28.8c-0.8-9.7-0.8-9.7,7.9-10.2
	c34-2.2,52.8-24.7,51.3-61.4c-1-24.2-14.2-40.8-35.7-44.5c-4.4-0.8-9.1-1.3-13.5-1c-4.9,0.4-6.3-1.2-6.7-6.8
	c-1.4-18.7-8-34.4-23.6-43.4c-32.4-18.7-72.1-0.8-83.8,37.7c-1.6,5.4-3.7,6.1-7.6,3.8c0.1-2.6,0-4.8-3.2-4.8
	c-5.6,0.1-11.2-0.1-16.8-0.2C489.8,370.2,488.6,371.7,488.6,374.7z M696.7,391.2c-0.2-2.5-1.8-4.5-3.3-6.5
	c-9.9-13.3-22.9-20.7-38.2-22.9c-3.8-0.5-5.4-2-6.5-6.1c-5.2-19.6-16.7-34-31-46c-3.4-2.9-7.1-1.7-7.7,2c-0.5,3.2,1.6,4.6,3.5,6.2
	c14.2,12.3,25.3,26.9,28.7,47.3c0.7,4.3,3,5.2,6.5,5.3c14.6,0.6,27.1,6.5,36.9,18.7c1.4,1.8,2.7,3.7,4.2,5.5
	c1.3,1.5,2.9,1.5,4.5,0.6C695.9,394.6,696.6,393.2,696.7,391.2z M705,410.4c0-5.4-3.1-10.4-5.9-10.1c-2.4,0.3-3.9,1.9-4,4.7
	c-0.2,4.2,3,9.6,5.6,9.6C703.6,414.6,705,412.8,705,410.4z"/>
<path class="st1" d="M512.5,375.2c4,2.4,6,1.6,7.6-3.8c11.7-38.6,51.4-56.5,83.8-37.7c15.6,9,22.2,24.7,23.6,43.4
	c0.4,5.6,1.8,7.2,6.7,6.8c4.5-0.4,9.1,0.2,13.5,1c21.5,3.8,34.7,20.4,35.7,44.5c1.5,36.7-17.3,59.2-51.3,61.4
	c-8.7,0.6-8.6,0.6-7.9,10.2c0.8,9.9,2.6,19.5,5.7,28.8c1.6,4.8,0.7,8.2-3.8,10.1c-30.1,12.5-60.7,18.5-92.6,10.2
	c-8.9-2.3-17.1-6.3-25.1-11.1c-4.3-2.6-5.7-6-4.1-11.4c3.3-10.9,3.7-22.1,2.5-33.5c-0.5-5-2-6.8-6.7-6.7
	c-11.2,0.2-22.1-1.8-31.7-8.5c-18.7-13-23-33.1-21-55.7c2.3-25.8,16.9-42.5,41.2-48.5C496.6,373.4,504.6,373.9,512.5,375.2z
	 M616.1,521.9c-2.3-11.6-3.2-22.6-3.1-33.7c0.1-7.4,1.8-9.5,8.5-9.7c7.3-0.2,14.4,0.8,21.8-1.8c21-7.4,30.6-22,29.3-46.4
	c-1-19.2-10.9-31.2-27.7-33.5c-6.5-0.9-13-0.9-19.5,0.1c-7,1-8.8-0.8-8.6-8.7c0.1-2.6,0.3-5.3,0.1-7.9c-1.2-15.7-5.8-29.1-19.6-36.4
	c-29-15.3-63.1,4.4-68.6,39.4c-1.5,9.7-3.2,10.5-11.6,7c-15.7-6.6-31.1-5.8-44.8,5.7c-13,10.9-17.4,31.9-11.9,51.8
	c3.5,12.6,10.9,20.6,22.1,24.4c7.7,2.7,15.6,3.5,23.6,2.6c7.2-0.8,8.4,0.2,10.3,8c2.4,9.8,3,19.9,2.1,30c-0.4,4.6,0.3,5.9,4.8,4.6
	c14.6-4.1,29.6-5.9,44.7-5.6C584.1,512.1,600,515.5,616.1,521.9z M608.6,532.9c-29.1-11.7-58.3-10.4-87.7-1.5
	C549.9,546.4,579.2,542.7,608.6,532.9z"/>
<path class="st1" d="M696.7,391.2c-0.2,2-0.8,3.4-2.2,4.2c-1.6,0.9-3.2,0.9-4.5-0.6c-1.5-1.7-2.8-3.7-4.2-5.5
	c-9.8-12.2-22.4-18.1-36.9-18.7c-3.6-0.1-5.8-1.1-6.5-5.3c-3.4-20.4-14.5-35.1-28.7-47.3c-1.9-1.6-4-3-3.5-6.2
	c0.6-3.8,4.2-4.9,7.7-2c14.3,12,25.8,26.4,31,46c1.1,4.1,2.7,5.6,6.5,6.1c15.3,2.2,28.2,9.6,38.2,22.9
	C695,386.7,696.6,388.7,696.7,391.2z"/>
<path class="st1" d="M705,410.4c0,2.4-1.4,4.2-4.2,4.2c-2.7,0-5.8-5.4-5.6-9.6c0.1-2.8,1.5-4.5,4-4.7C701.9,400,705,405,705,410.4z"
	/>
<path class="st2" d="M512.5,375.2c-8-1.3-15.9-1.8-23.9-0.5c-0.1-3,1.2-4.5,3.9-4.4c5.6,0.1,11.2,0.3,16.8,0.2
	C512.6,370.4,512.7,372.6,512.5,375.2z"/>
<path class="st2" d="M608.6,532.9c-29.4,9.7-58.7,13.5-87.7-1.5C550.3,522.6,579.6,521.3,608.6,532.9z"/>
<path class="st1" d="M600.2,464.3c-2,11.7-4,23.6-6.2,35.4c-0.7,3.5-3.1,5.6-6.5,4.6c-3.2-0.9-4.8-3.7-4.2-7.3
	c1.9-11.5,4-22.9,6.1-34.3c0.7-3.8,2.9-5.6,6.3-5C598.7,458.3,600.1,460.8,600.2,464.3z"/>
<path class="st1" d="M544.6,497.8c0.4,4.2-0.8,7.4-4.8,7.9c-4,0.5-5.7-2.3-6.2-6.5c-1.1-10.8-2.3-21.6-3.4-32.3
	c-0.4-4.1,0.7-7.4,4.8-7.9c4.1-0.5,5.9,2.4,6.3,6.5C542.5,476.3,543.5,487.1,544.6,497.8z"/>
</svg>
